<?xml version="1.0" standalone="no"?>
<!DOCTYPE svg PUBLIC "-//W3C//DTD SVG 20010904//EN"
 "http://www.w3.org/TR/2001/REC-SVG-20010904/DTD/svg10.dtd">
<svg version="1.0" xmlns="http://www.w3.org/2000/svg"
 width="1024.000000pt" height="1024.000000pt" viewBox="0 0 1024.000000 1024.000000"
 preserveAspectRatio="xMidYMid meet">

<g transform="translate(0.000000,1024.000000) scale(0.100000,-0.100000)"
fill="#000000" stroke="none">
<path d="M0 5120 l0 -5120 5120 0 5120 0 0 5120 0 5120 -5120 0 -5120 0 0
-5120z m5265 3310 c63 -382 167 -1001 230 -1375 63 -374 125 -738 137 -810 14
-85 24 -121 28 -105 6 24 6 24 19 -7 7 -18 19 -30 29 -29 11 1 16 -5 14 -16
-2 -10 4 -15 15 -14 21 3 65 -33 56 -47 -8 -13 26 8 234 143 89 58 292 188
450 290 158 102 330 213 382 247 53 34 97 60 99 58 2 -2 -8 -20 -21 -42 -14
-21 -107 -173 -208 -338 -314 -516 -365 -599 -394 -645 -62 -97 -115 -191
-105 -185 7 4 10 1 8 -7 -4 -18 31 -60 66 -78 l29 -15 -34 -5 c-26 -4 -6 -10
91 -29 330 -62 1340 -248 1805 -332 182 -33 429 -78 550 -100 121 -22 273 -50
337 -62 65 -11 116 -22 115 -24 -4 -3 -224 -45 -757 -143 -212 -39 -495 -91
-630 -116 -135 -25 -465 -86 -735 -135 -539 -99 -897 -167 -903 -174 -3 -2 42
-80 98 -172 56 -92 170 -280 253 -418 83 -137 222 -365 308 -505 86 -140 155
-256 154 -258 -2 -2 -47 28 -101 66 -364 253 -1196 814 -1201 808 -4 -3 -70
-358 -147 -786 -73 -403 -204 -1136 -267 -1485 -118 -657 -136 -750 -143 -725
-3 14 -33 174 -65 355 -127 702 -163 902 -225 1250 -173 969 -249 1381 -255
1386 -3 4 -42 -16 -86 -45 -112 -72 -674 -451 -953 -641 -128 -88 -242 -167
-255 -175 l-22 -15 19 30 c11 17 74 120 141 230 67 110 158 259 202 330 74
120 262 429 406 668 32 54 57 101 54 103 -6 6 -504 102 -1082 209 -225 41
-471 86 -545 100 -74 14 -292 55 -485 90 -585 107 -900 165 -909 168 -9 3 142
31 1174 217 1513 273 1862 340 1835 351 -11 4 -15 8 -8 8 6 1 -7 19 -29 42
-38 38 -47 67 -12 38 16 -13 16 -12 4 8 -8 12 -17 20 -20 18 -3 -2 -6 4 -6 13
0 9 -49 96 -108 192 -155 250 -324 523 -475 765 -71 115 -128 211 -127 213 2
2 42 -21 88 -51 45 -30 148 -97 228 -148 80 -51 289 -185 465 -299 387 -249
404 -259 386 -237 -12 15 -11 17 8 17 11 0 21 5 21 11 0 6 7 9 15 5 8 -3 15
-1 15 5 0 6 9 8 20 4 12 -4 28 -1 36 6 13 10 17 10 23 0 5 -8 10 2 14 26 3 21
31 187 62 368 119 695 240 1405 348 2055 92 555 113 668 120 635 4 -22 59
-353 122 -735z m-658 -2285 c0 -8 -4 -15 -9 -15 -10 0 -11 14 -1 23 9 10 10 9
10 -8z m-607 -684 c0 -8 -61 -22 -69 -15 -2 1 12 7 30 13 19 5 35 10 37 10 1
1 2 -3 2 -8z"/>
<path d="M5661 6094 c0 -11 3 -14 6 -6 3 7 2 16 -1 19 -3 4 -6 -2 -5 -13z"/>
<path d="M4584 6016 c-6 -18 -7 -42 -4 -52 5 -13 9 -4 14 29 9 58 4 68 -10 23z"/>
<path d="M5671 6010 c1 -8 4 -25 7 -37 l7 -23 30 20 c21 14 25 20 13 20 -16 0
-22 11 -19 32 0 4 -8 6 -19 5 -11 -1 -20 -8 -19 -17z"/>
<path d="M4540 5976 c0 -2 7 -7 16 -10 8 -3 12 -2 9 4 -6 10 -25 14 -25 6z"/>
<path d="M6175 5479 c-9 -14 0 -22 18 -17 13 2 13 5 2 15 -10 9 -16 9 -20 2z"/>
<path d="M6228 5453 c7 -3 16 -2 19 1 4 3 -2 6 -13 5 -11 0 -14 -3 -6 -6z"/>
</g>
</svg>
